<svg xmlns="http://www.w3.org/2000/svg" xmlns:xlink="http://www.w3.org/1999/xlink" width="500" zoomAndPan="magnify" viewBox="0 0 375 149.999998" height="200" preserveAspectRatio="xMidYMid meet" version="1.0"><defs><g/><clipPath id="7f68f60b76"><path d="M 0.726562 0.609375 L 103.621094 0.609375 L 103.621094 103.480469 L 0.726562 103.480469 Z M 0.726562 0.609375 " clip-rule="nonzero"/></clipPath><clipPath id="e67da43c48"><rect x="0" width="138" y="0" height="40"/></clipPath><clipPath id="cf3517b2d5"><path d="M 111 5 L 320.640625 5 L 320.640625 51 L 111 51 Z M 111 5 " clip-rule="nonzero"/></clipPath><clipPath id="00f6ecbab1"><rect x="0" width="210" y="0" height="46"/></clipPath><clipPath id="1c0b7e0c49"><rect x="0" width="321" y="0" height="104"/></clipPath></defs><g transform="matrix(1, 0, 0, 1, 24, 23)"><g clip-path="url(#1c0b7e0c49)"><g clip-path="url(#7f68f60b76)"><path fill="#30baf4" d="M 103.496094 59.335938 L 103.496094 44.65625 L 92.015625 43.015625 C 90.976562 38.375 89.148438 34.027344 86.675781 30.128906 L 93.636719 20.851562 L 83.253906 10.46875 L 73.976562 17.429688 C 70.078125 14.957031 65.734375 13.128906 61.089844 12.089844 L 59.453125 0.609375 L 44.769531 0.609375 L 43.128906 12.089844 C 38.488281 13.128906 34.144531 14.957031 30.246094 17.429688 L 20.96875 10.46875 L 10.585938 20.851562 L 17.542969 30.128906 C 15.074219 34.027344 13.246094 38.371094 12.203125 43.015625 L 0.726562 44.65625 L 0.726562 59.335938 L 12.203125 60.976562 C 13.246094 65.617188 15.074219 69.964844 17.542969 73.859375 L 10.585938 83.140625 L 20.96875 93.519531 L 30.246094 86.5625 C 34.144531 89.03125 38.488281 90.859375 43.128906 91.902344 L 44.769531 103.378906 L 59.453125 103.378906 L 61.089844 91.902344 C 65.734375 90.863281 70.078125 89.03125 73.976562 86.5625 L 83.253906 93.519531 L 93.636719 83.140625 L 86.675781 73.859375 C 89.148438 69.964844 90.976562 65.617188 92.015625 60.976562 Z M 46.332031 68.863281 L 36.515625 60.636719 C 35.09375 58.078125 34.28125 55.128906 34.28125 51.996094 C 34.28125 40.507812 45.015625 32 56.203125 34.640625 L 63.292969 37.773438 L 68.429688 42.914062 L 69.917969 51.136719 C 70.5625 63.683594 58.207031 72.945312 46.332031 68.863281 Z M 46.332031 68.863281 " fill-opacity="1" fill-rule="nonzero"/></g><path fill="#000000" d="M 54.035156 44.414062 L 54.03125 44.414062 C 53.835938 44.597656 56.414062 42.207031 32.476562 64.375 C 29.476562 66.875 29.273438 71.410156 32.03125 74.171875 C 34.792969 76.929688 39.328125 76.726562 41.828125 73.726562 C 41.996094 73.546875 61.753906 52.207031 61.789062 52.171875 L 61.789062 52.167969 Z M 54.035156 44.414062 " fill-opacity="1" fill-rule="nonzero"/><path fill="#000000" d="M 74.417969 36.929688 C 76.355469 40.980469 75.644531 45.980469 72.285156 49.335938 C 69.488281 52.136719 65.480469 53.144531 61.789062 52.171875 L 61.789062 52.167969 C 58.007812 51.175781 55.03125 48.203125 54.035156 44.414062 L 54.03125 44.414062 C 53.070312 40.769531 54.035156 36.75 56.867188 33.917969 C 60.222656 30.558594 65.222656 29.847656 69.277344 31.785156 L 63.292969 37.773438 L 68.429688 42.914062 Z M 74.417969 36.929688 " fill-opacity="1" fill-rule="nonzero"/><g transform="matrix(1, 0, 0, 1, 111, 45)"><g clip-path="url(#e67da43c48)"><g fill="#30baf4" fill-opacity="1"><g transform="translate(0.482134, 33.284552)"><g><path d="M 29.9375 0 L 21.578125 0 L 21.578125 -10.328125 L 17.46875 -2.78125 L 14.171875 -2.78125 L 10.015625 -10.328125 L 10.015625 0 L 1.6875 0 L 1.6875 -25.6875 L 9.140625 -25.6875 L 15.8125 -12.28125 L 22.5 -25.6875 L 29.9375 -25.6875 Z M 29.9375 0 "/></g></g></g><g fill="#30baf4" fill-opacity="1"><g transform="translate(32.058252, 33.284552)"><g><path d="M 13.453125 0.40625 C 9.617188 0.40625 6.648438 -0.742188 4.546875 -3.046875 C 2.441406 -5.359375 1.390625 -8.625 1.390625 -12.84375 C 1.390625 -17.082031 2.441406 -20.347656 4.546875 -22.640625 C 6.648438 -24.941406 9.617188 -26.09375 13.453125 -26.09375 C 17.328125 -26.09375 20.304688 -24.941406 22.390625 -22.640625 C 24.484375 -20.347656 25.53125 -17.082031 25.53125 -12.84375 C 25.53125 -8.625 24.484375 -5.359375 22.390625 -3.046875 C 20.304688 -0.742188 17.328125 0.40625 13.453125 0.40625 Z M 13.453125 -6.828125 C 14.648438 -6.828125 15.582031 -7.347656 16.25 -8.390625 C 16.914062 -9.441406 17.269531 -10.925781 17.3125 -12.84375 C 17.269531 -14.789062 16.914062 -16.285156 16.25 -17.328125 C 15.582031 -18.378906 14.648438 -18.90625 13.453125 -18.90625 C 12.222656 -18.90625 11.273438 -18.378906 10.609375 -17.328125 C 9.941406 -16.285156 9.609375 -14.789062 9.609375 -12.84375 C 9.609375 -10.925781 9.941406 -9.441406 10.609375 -8.390625 C 11.273438 -7.347656 12.222656 -6.828125 13.453125 -6.828125 Z M 13.453125 -6.828125 "/></g></g></g><g fill="#30baf4" fill-opacity="1"><g transform="translate(58.910782, 33.284552)"><g><path d="M 23.828125 -18.484375 L 16.84375 -18.484375 L 16.84375 0 L 8.53125 0 L 8.53125 -18.484375 L 1.484375 -18.484375 L 1.484375 -25.6875 L 23.828125 -25.6875 Z M 23.828125 -18.484375 "/></g></g></g><g fill="#30baf4" fill-opacity="1"><g transform="translate(84.22302, 33.284552)"><g><path d="M 13.453125 0.40625 C 9.617188 0.40625 6.648438 -0.742188 4.546875 -3.046875 C 2.441406 -5.359375 1.390625 -8.625 1.390625 -12.84375 C 1.390625 -17.082031 2.441406 -20.347656 4.546875 -22.640625 C 6.648438 -24.941406 9.617188 -26.09375 13.453125 -26.09375 C 17.328125 -26.09375 20.304688 -24.941406 22.390625 -22.640625 C 24.484375 -20.347656 25.53125 -17.082031 25.53125 -12.84375 C 25.53125 -8.625 24.484375 -5.359375 22.390625 -3.046875 C 20.304688 -0.742188 17.328125 0.40625 13.453125 0.40625 Z M 13.453125 -6.828125 C 14.648438 -6.828125 15.582031 -7.347656 16.25 -8.390625 C 16.914062 -9.441406 17.269531 -10.925781 17.3125 -12.84375 C 17.269531 -14.789062 16.914062 -16.285156 16.25 -17.328125 C 15.582031 -18.378906 14.648438 -18.90625 13.453125 -18.90625 C 12.222656 -18.90625 11.273438 -18.378906 10.609375 -17.328125 C 9.941406 -16.285156 9.609375 -14.789062 9.609375 -12.84375 C 9.609375 -10.925781 9.941406 -9.441406 10.609375 -8.390625 C 11.273438 -7.347656 12.222656 -6.828125 13.453125 -6.828125 Z M 13.453125 -6.828125 "/></g></g></g><g fill="#30baf4" fill-opacity="1"><g transform="translate(111.075549, 33.284552)"><g><path d="M 21.109375 -11.09375 C 22.960938 -9.625 23.890625 -7.332031 23.890625 -4.21875 L 23.890625 0 L 16.28125 0 L 16.28125 -5.296875 C 16.28125 -7.554688 15.21875 -8.875 13.09375 -9.25 L 10.015625 -9.25 L 10.015625 0 L 1.6875 0 L 1.6875 -25.6875 L 15.25 -25.6875 C 18.0625 -25.6875 20.226562 -24.972656 21.75 -23.546875 C 23.269531 -22.128906 24.03125 -20.101562 24.03125 -17.46875 C 24.03125 -14.59375 23.054688 -12.46875 21.109375 -11.09375 Z M 14.125 -15.40625 C 15.769531 -15.40625 16.59375 -16.039062 16.59375 -17.3125 C 16.59375 -18.613281 15.769531 -19.265625 14.125 -19.265625 L 10.015625 -19.265625 L 10.015625 -15.40625 Z M 14.125 -15.40625 "/></g></g></g></g></g><g clip-path="url(#cf3517b2d5)"><g transform="matrix(1, 0, 0, 1, 111, 5)"><g clip-path="url(#00f6ecbab1)"><g fill="#30baf4" fill-opacity="1"><g transform="translate(0.482134, 38.791743)"><g><path d="M 17.59375 0 L 12.78125 -8.859375 L 11.28125 -6.65625 L 11.28125 0 L 1.90625 0 L 1.90625 -28.921875 L 11.28125 -28.921875 L 11.28125 -19.734375 L 17.765625 -28.921875 L 27.1875 -28.921875 L 18.34375 -16.609375 L 27.359375 0 Z M 17.59375 0 "/></g></g></g><g fill="#30baf4" fill-opacity="1"><g transform="translate(27.953824, 38.791743)"><g><path d="M 11.28125 -21.703125 L 11.28125 -17.9375 L 24.0625 -17.9375 L 24.0625 -11 L 11.28125 -11 L 11.28125 -7.234375 L 24.0625 -7.234375 L 24.0625 0 L 1.90625 0 L 1.90625 -28.921875 L 24.0625 -28.921875 L 24.0625 -21.703125 Z M 11.28125 -21.703125 "/></g></g></g><g fill="#30baf4" fill-opacity="1"><g transform="translate(53.921797, 38.791743)"><g><path d="M 33.734375 0 L 24.296875 0 L 24.296875 -11.625 L 19.671875 -3.125 L 15.96875 -3.125 L 11.28125 -11.625 L 11.28125 0 L 1.90625 0 L 1.90625 -28.921875 L 10.296875 -28.921875 L 17.8125 -13.828125 L 25.34375 -28.921875 L 33.734375 -28.921875 Z M 33.734375 0 "/></g></g></g><g fill="#30baf4" fill-opacity="1"><g transform="translate(89.490398, 38.791743)"><g><path d="M 22.6875 -14.984375 C 26.15625 -13.867188 27.890625 -11.59375 27.890625 -8.15625 C 27.890625 -5.570312 26.804688 -3.566406 24.640625 -2.140625 C 22.484375 -0.710938 19.398438 0 15.390625 0 L 1.90625 0 L 1.90625 -28.921875 L 16.953125 -28.921875 C 19.960938 -28.921875 22.273438 -28.21875 23.890625 -26.8125 C 25.515625 -25.40625 26.328125 -23.390625 26.328125 -20.765625 C 26.328125 -18.023438 25.113281 -16.097656 22.6875 -14.984375 Z M 11.171875 -18 L 15.625 -18 C 17.050781 -18 17.765625 -18.578125 17.765625 -19.734375 C 17.765625 -20.847656 17.050781 -21.503906 15.625 -21.703125 L 11.171875 -21.703125 Z M 16.203125 -7.234375 C 17.898438 -7.234375 18.75 -7.90625 18.75 -9.25 C 18.75 -10.644531 17.898438 -11.34375 16.203125 -11.34375 L 11.171875 -11.34375 L 11.171875 -7.234375 Z M 16.203125 -7.234375 "/></g></g></g><g fill="#30baf4" fill-opacity="1"><g transform="translate(118.986309, 38.791743)"><g><path d="M 20.765625 -4.21875 L 11.046875 -4.21875 L 9.484375 0 L 0.40625 0 L 11.21875 -28.921875 L 20.71875 -28.921875 L 31.421875 0 L 22.28125 0 Z M 18.21875 -11.171875 L 15.96875 -19.09375 L 13.59375 -11.171875 Z M 18.21875 -11.171875 "/></g></g></g><g fill="#30baf4" fill-opacity="1"><g transform="translate(150.737787, 38.791743)"><g><path d="M 1.90625 0 L 1.90625 -28.984375 L 9.828125 -28.984375 L 17.640625 -15.5625 L 17.640625 -28.921875 L 27.078125 -28.921875 L 27.078125 0 L 19.15625 -0.0625 L 11.28125 -13.421875 L 11.28125 0 Z M 1.90625 0 "/></g></g></g><g fill="#30baf4" fill-opacity="1"><g transform="translate(179.655357, 38.791743)"><g><path d="M 27.71875 0 L 23.546875 0 L 22.5 -3.1875 C 20.269531 -0.75 17.671875 0.46875 14.703125 0.46875 C 10.492188 0.46875 7.25 -0.832031 4.96875 -3.4375 C 2.695312 -6.039062 1.5625 -9.71875 1.5625 -14.46875 C 1.5625 -19.25 2.695312 -22.929688 4.96875 -25.515625 C 7.25 -28.097656 10.492188 -29.390625 14.703125 -29.390625 C 18.328125 -29.390625 21.238281 -28.441406 23.4375 -26.546875 C 25.632812 -24.660156 27.019531 -21.984375 27.59375 -18.515625 L 18.453125 -16.890625 C 17.992188 -19.828125 16.757812 -21.296875 14.75 -21.296875 C 13.476562 -21.296875 12.503906 -20.707031 11.828125 -19.53125 C 11.148438 -18.351562 10.8125 -16.664062 10.8125 -14.46875 C 10.8125 -12.300781 11.148438 -10.628906 11.828125 -9.453125 C 12.503906 -8.273438 13.476562 -7.6875 14.75 -7.6875 C 15.832031 -7.6875 16.660156 -8.519531 17.234375 -10.1875 L 14.578125 -10.1875 L 14.578125 -15.328125 L 27.890625 -15.328125 Z M 27.71875 0 "/></g></g></g></g></g></g></g></g></svg>