<svg xmlns="http://www.w3.org/2000/svg" xmlns:xlink="http://www.w3.org/1999/xlink" width="500" zoomAndPan="magnify" viewBox="0 0 375 374.999991" height="500" preserveAspectRatio="xMidYMid meet" version="1.0"><defs><clipPath id="53bc839afe"><path d="M 10.648438 10.648438 L 364.648438 10.648438 L 364.648438 364.648438 L 10.648438 364.648438 Z M 10.648438 10.648438 " clip-rule="nonzero"/></clipPath></defs><g clip-path="url(#53bc839afe)"><path fill="#30baf4" d="M 364.34375 212.761719 L 364.34375 162.234375 L 324.839844 156.589844 C 321.257812 140.617188 314.964844 125.660156 306.460938 112.246094 L 330.410156 80.3125 L 294.679688 44.582031 L 262.746094 68.535156 C 249.335938 60.03125 234.378906 53.734375 218.40625 50.15625 L 212.761719 10.648438 L 162.234375 10.648438 L 156.589844 50.15625 C 140.617188 53.734375 125.660156 60.03125 112.246094 68.53125 L 80.3125 44.582031 L 44.582031 80.3125 L 68.535156 112.246094 C 60.03125 125.65625 53.734375 140.613281 50.15625 156.589844 L 10.648438 162.234375 L 10.648438 212.761719 L 50.15625 218.40625 C 53.734375 234.378906 60.03125 249.335938 68.53125 262.746094 L 44.582031 294.679688 L 80.3125 330.410156 L 112.246094 306.460938 C 125.65625 314.964844 140.613281 321.257812 156.589844 324.839844 L 162.234375 364.34375 L 212.761719 364.34375 L 218.40625 324.839844 C 234.378906 321.257812 249.335938 314.964844 262.746094 306.460938 L 294.679688 330.410156 L 330.410156 294.679688 L 306.460938 262.746094 C 314.964844 249.335938 321.257812 234.378906 324.839844 218.40625 Z M 167.605469 245.546875 L 133.828125 217.234375 C 128.929688 208.429688 126.140625 198.289062 126.140625 187.496094 C 126.140625 147.960938 163.078125 118.683594 201.585938 127.773438 L 225.976562 138.550781 L 243.660156 156.242188 L 248.78125 184.535156 C 251 227.71875 208.484375 259.601562 167.605469 245.546875 Z M 167.605469 245.546875 " fill-opacity="1" fill-rule="nonzero"/></g><path fill="#000000" d="M 194.117188 161.410156 L 194.109375 161.410156 C 193.429688 162.039062 202.3125 153.8125 119.925781 230.105469 C 109.605469 238.710938 108.898438 254.316406 118.394531 263.816406 C 127.894531 273.316406 143.5 272.609375 152.105469 262.285156 C 152.679688 261.664062 220.6875 188.226562 220.800781 188.101562 L 220.800781 188.097656 Z M 194.117188 161.410156 " fill-opacity="1" fill-rule="nonzero"/><path fill="#000000" d="M 264.265625 135.640625 C 270.933594 149.585938 268.488281 166.796875 256.929688 178.351562 C 247.304688 187.980469 233.507812 191.449219 220.800781 188.101562 L 220.800781 188.097656 C 207.792969 184.675781 197.542969 174.449219 194.117188 161.410156 L 194.109375 161.410156 C 190.804688 148.859375 194.121094 135.023438 203.859375 125.28125 C 215.417969 113.726562 232.625 111.28125 246.570312 117.949219 L 225.976562 138.550781 L 243.664062 156.242188 Z M 264.265625 135.640625 " fill-opacity="1" fill-rule="nonzero"/></svg>